<svg width="42" height="42" viewBox="0 0 42 42" fill="none" xmlns="http://www.w3.org/2000/svg">
<path d="M41.999 21.1919C42.037 17.0387 40.8425 12.9674 38.5666 9.49307C36.2908 6.0187 33.0358 3.29722 29.2132 1.67278C25.3906 0.0483414 21.1722 -0.406095 17.0914 0.366939C13.0106 1.13997 9.25059 3.10576 6.28697 6.0157C3.32336 8.92564 1.28919 12.6491 0.441713 16.7151C-0.405767 20.7811 -0.0284953 25.0071 1.52581 28.8587C3.08013 32.7104 5.74167 36.0146 9.17387 38.3535C12.6061 40.6925 16.6548 41.9612 20.808 41.9991C23.5657 42.0243 26.3013 41.5061 28.8586 40.4741C31.416 39.4421 33.7451 37.9164 35.7128 35.9843C39.6869 32.0822 41.9481 26.7612 41.999 21.1919ZM17.0233 28.713L11.0751 22.3584C10.987 22.2665 10.9168 22.159 10.868 22.0415C10.7797 21.9418 10.7097 21.8275 10.661 21.7036C10.5522 21.4512 10.4973 21.1789 10.4999 20.9041C10.5024 20.6292 10.5622 20.358 10.6756 20.1076C10.7779 19.8508 10.9299 19.6167 11.1229 19.4187L17.4802 13.1765C17.8793 12.7847 18.4176 12.5675 18.9768 12.5726C19.536 12.5777 20.0703 12.8047 20.4621 13.2038C20.8539 13.6028 21.0712 14.1411 21.0661 14.7003C21.061 15.2596 20.8339 15.7938 20.4349 16.1856L17.6802 18.8696L29.4187 18.9768C29.9757 18.9819 30.5078 19.2081 30.898 19.6055C31.2882 20.0029 31.5046 20.539 31.4995 21.096C31.4944 21.6529 31.2683 22.185 30.8708 22.5752C30.4734 22.9654 29.9373 23.1818 29.3804 23.1767L17.4949 23.0681L20.0946 25.8429C20.4752 26.2502 20.6784 26.792 20.6595 27.3491C20.6407 27.9062 20.4013 28.433 19.994 28.8136C19.5867 29.1942 19.0449 29.3974 18.4878 29.3786C17.9307 29.3597 17.4039 29.1203 17.0233 28.713Z" fill="#231F20"/>
</svg>
