<svg width="18" height="20" viewBox="0 0 18 20" fill="none" xmlns="http://www.w3.org/2000/svg">
<path d="M16.875 8.25172H3.5325L7.61625 2.25672C7.80721 1.97592 7.89907 1.61391 7.87165 1.25033C7.84422 0.886741 7.69974 0.551362 7.47 0.317972C7.24026 0.0845813 6.94406 -0.0277038 6.64658 0.00581831C6.34911 0.0393404 6.0747 0.215924 5.88375 0.496722L0.25875 8.74672C0.220906 8.81234 0.187064 8.88128 0.1575 8.95297C0.1575 9.02172 0.1575 9.06297 0.0787502 9.13172C0.0277579 9.28938 0.00105876 9.4572 0 9.62672C0.00105876 9.79624 0.0277579 9.96407 0.0787502 10.1217C0.0787502 10.1905 0.0787498 10.2317 0.1575 10.3005C0.187064 10.3722 0.220906 10.4411 0.25875 10.5067L5.88375 18.7567C5.98952 18.9119 6.12198 19.0368 6.2717 19.1223C6.42142 19.2079 6.58472 19.2521 6.75 19.2517C7.01286 19.2523 7.2676 19.1405 7.47 18.9355C7.58392 18.82 7.67808 18.6783 7.7471 18.5183C7.81612 18.3583 7.85864 18.1833 7.87223 18.0032C7.88581 17.8231 7.8702 17.6415 7.82627 17.4688C7.78235 17.2961 7.71098 17.1357 7.61625 16.9967L3.5325 11.0017H16.875C17.1734 11.0017 17.4595 10.8569 17.6705 10.599C17.8815 10.3411 18 9.99139 18 9.62672C18 9.26205 17.8815 8.91231 17.6705 8.65445C17.4595 8.39659 17.1734 8.25172 16.875 8.25172Z" fill="#231F20"/>
</svg>
