<svg width="42" height="42" viewBox="0 0 42 42" fill="none" xmlns="http://www.w3.org/2000/svg">
<path d="M0 21C0 25.1534 1.23163 29.2135 3.53913 32.6669C5.84664 36.1203 9.12638 38.812 12.9636 40.4014C16.8009 41.9908 21.0233 42.4067 25.0968 41.5964C29.1704 40.7861 32.9123 38.7861 35.8492 35.8492C38.7861 32.9123 40.7861 29.1704 41.5964 25.0968C42.4067 21.0233 41.9908 16.8009 40.4014 12.9636C38.812 9.12638 36.1203 5.84664 32.6669 3.53913C29.2135 1.23163 25.1534 0 21 0C18.2422 0 15.5115 0.54318 12.9636 1.59853C10.4158 2.65387 8.10077 4.20072 6.15075 6.15075C2.21249 10.089 0 15.4304 0 21ZM24.906 13.251L30.9119 19.551C31.0008 19.6421 31.072 19.7489 31.1219 19.866C31.2111 19.9648 31.2822 20.0785 31.3319 20.202C31.443 20.4533 31.5004 20.7251 31.5004 21C31.5004 21.2748 31.443 21.5466 31.3319 21.798C31.232 22.0557 31.0821 22.2912 30.8909 22.491L24.591 28.7909C24.1955 29.1864 23.6592 29.4085 23.1 29.4085C22.5407 29.4085 22.0044 29.1864 21.609 28.7909C21.2135 28.3955 20.9914 27.8592 20.9914 27.2999C20.9914 26.7407 21.2135 26.2044 21.609 25.8089L24.339 23.1H12.6C12.043 23.1 11.5089 22.8787 11.1151 22.4849C10.7212 22.0911 10.5 21.5569 10.5 21C10.5 20.443 10.7212 19.9089 11.1151 19.515C11.5089 19.1212 12.043 18.9 12.6 18.9H24.486L21.861 16.149C21.4767 15.7452 21.2685 15.2053 21.2823 14.648C21.2961 14.0907 21.5307 13.5618 21.9345 13.1775C22.3382 12.7932 22.8782 12.585 23.4354 12.5988C23.9927 12.6126 24.5217 12.8472 24.906 13.251Z" fill="#231F20"/>
</svg>
