<svg width="32" height="37" viewBox="0 0 32 37" fill="none" xmlns="http://www.w3.org/2000/svg">
<path d="M31.5299 28.0773L10.5986 28.2881L10.3593 4.53808C10.3351 2.13141 11.669 0.166847 13.3388 0.150029L28.2236 0.000109056C29.8933 -0.0167087 31.2665 1.92059 31.2908 4.32725L31.53 28.0773L31.5299 28.0773Z" fill="#C7CFD3"/>
<path d="M5.17098 12.1202L9.01799 12.0814C9.80063 12.0735 10.4453 13.0794 10.4579 14.328L10.5982 28.2578L0.288153 28.3617L0.219078 21.5036C0.211 20.7016 0.370377 19.9206 0.672145 19.2838L3.39549 13.5368C3.81559 12.6501 4.471 12.1272 5.17098 12.1202Z" fill="#FF473E"/>
<path d="M0.8703 32.2112L31.1762 31.9059C31.6378 31.9013 32.0066 31.3582 31.9999 30.6928L31.9793 28.6498C31.9759 28.3144 31.7846 28.0444 31.5519 28.0468L0.294203 28.3616C0.129362 28.3633 -0.00240292 28.5572 -9.89997e-06 28.7948L0.0223502 31.0148C0.0290517 31.6802 0.408734 32.2158 0.8703 32.2112Z" fill="#2B3B47"/>
<path d="M2.14348 19.7829L4.53152 14.7465C4.58715 14.6291 4.67384 14.5599 4.76637 14.559L7.64901 14.5299C7.81466 14.5283 7.9511 14.7418 7.95377 15.0068L8.00425 20.0186C8.00692 20.2836 7.87481 20.4999 7.70915 20.5015L2.388 20.5551C2.13835 20.5577 1.9933 20.0995 2.14348 19.7829Z" fill="#76DFFF"/>
<path d="M1.09577 26.1056L0.265483 26.1139L0.233531 22.9417L1.06382 22.9333C1.45314 22.9294 1.77327 23.381 1.77893 23.9422L1.79041 25.0824C1.79606 25.6437 1.48509 26.1017 1.09577 26.1056Z" fill="#FFD469"/>
<path d="M7.98864 33.2377C8.00889 35.2487 6.89428 36.8903 5.49904 36.9044C4.10379 36.9184 2.95634 35.2996 2.93609 33.2886C2.91583 31.2776 4.03045 29.636 5.42569 29.6219C6.82093 29.6079 7.96839 31.2268 7.98864 33.2377ZM17.5509 29.4999C16.1556 29.514 15.041 31.1555 15.0613 33.1666C15.0815 35.1776 16.229 36.7964 17.6242 36.7823C19.0195 36.7683 20.1341 35.1267 20.1138 33.1157C20.0936 31.1047 18.9461 29.4859 17.5509 29.4999ZM24.6034 29.4289C23.2081 29.4429 22.0935 31.0845 22.1138 33.0955C22.134 35.1065 23.2815 36.7253 24.6767 36.7113C26.0719 36.6972 27.1866 35.0556 27.1663 33.0446C27.1461 31.0336 25.9986 29.4148 24.6034 29.4289Z" fill="#597B91"/>
<path d="M7.1182 33.2465C7.13147 34.5645 6.40089 35.6405 5.48642 35.6497C4.57196 35.659 3.81985 34.5979 3.80658 33.2798C3.7933 31.9618 4.52388 30.8858 5.43835 30.8766C6.35282 30.8674 7.10492 31.9284 7.1182 33.2465ZM17.5635 30.7546C16.6491 30.7638 15.9185 31.8398 15.9318 33.1578C15.945 34.4759 16.6971 35.5369 17.6116 35.5277C18.5261 35.5185 19.2567 34.4425 19.2434 33.1245C19.2301 31.8064 18.478 30.7453 17.5635 30.7546ZM24.616 30.6835C23.7015 30.6927 22.971 31.7687 22.9842 33.0868C22.9975 34.4048 23.7496 35.4659 24.6641 35.4567C25.5786 35.4475 26.3091 34.3715 26.2959 33.0534C26.2826 31.7354 25.5305 30.6743 24.616 30.6835Z" fill="#2B3B47"/>
</svg>
