<svg width="32" height="37" viewBox="0 0 32 37" fill="none" xmlns="http://www.w3.org/2000/svg">
<path d="M31.562 28.2878L10.6294 28.0794L10.8659 4.32787C10.8898 1.92106 12.2629 -0.0165214 13.9328 0.000105509L28.8185 0.148325C30.4884 0.164951 31.8226 2.12949 31.7986 4.5363L31.5621 28.2878L31.562 28.2878Z" fill="#C7CFD3"/>
<path d="M5.52646 11.805L9.37372 11.8433C10.1564 11.8511 10.7809 12.8697 10.7684 14.1185L10.6297 28.0491L0.319023 27.9464L0.387314 21.0879C0.3953 20.2859 0.570296 19.5082 0.884776 18.8776L3.72284 13.1858C4.16064 12.3077 4.82644 11.798 5.52646 11.805Z" fill="#FF473E"/>
<path d="M0.823913 31.8071L31.1317 32.1089C31.5934 32.1135 31.973 31.5778 31.9796 30.9124L31.9999 28.8693C32.0033 28.5339 31.8173 28.2601 31.5846 28.2578L0.324997 27.9465C0.160146 27.9449 0.024514 28.1362 0.0221482 28.3738L4.18708e-05 30.5939C-0.00658363 31.2593 0.362318 31.8025 0.823913 31.8071Z" fill="#2B3B47"/>
<path d="M2.34578 19.406L4.83436 14.4181C4.89234 14.3019 4.9804 14.2344 5.07294 14.2354L7.95575 14.2641C8.12142 14.2657 8.25356 14.482 8.25092 14.747L8.20101 19.7591C8.19838 20.0241 8.06196 20.2377 7.89629 20.236L2.5748 20.1831C2.32514 20.1806 2.18928 19.7196 2.34578 19.406Z" fill="#76DFFF"/>
<path d="M1.17166 25.7069L0.341315 25.6986L0.372904 22.5261L1.20325 22.5344C1.59259 22.5383 1.90363 22.9963 1.89805 23.5574L1.88669 24.6978C1.8811 25.259 1.561 25.7107 1.17166 25.7069Z" fill="#FFD469"/>
<path d="M7.92067 32.976C7.90065 34.9872 6.75331 36.6062 5.35798 36.5923C3.96265 36.5784 2.84778 34.9369 2.8678 32.9257C2.88783 30.9146 4.03516 29.2956 5.4305 29.3095C6.82583 29.3234 7.9407 30.965 7.92067 32.976ZM17.5564 29.4303C16.1611 29.4164 15.0138 31.0354 14.9938 33.0466C14.9737 35.0577 16.0886 36.6993 17.4839 36.7132C18.8793 36.7271 20.0266 35.108 20.0466 33.0969C20.0667 31.0857 18.9517 29.4442 17.5564 29.4303ZM24.6094 29.5005C23.214 29.4866 22.0667 31.1057 22.0467 33.1168C22.0267 35.1279 23.1415 36.7695 24.5369 36.7834C25.9322 36.7973 27.0795 35.1782 27.0996 33.1671C27.1196 31.156 26.0047 29.5144 24.6094 29.5005Z" fill="#597B91"/>
<path d="M7.05012 32.9674C7.03699 34.2855 6.28496 35.3467 5.37043 35.3376C4.45591 35.3285 3.72516 34.2526 3.73828 32.9344C3.75141 31.6163 4.50344 30.5551 5.41796 30.5642C6.33249 30.5733 7.06324 31.6493 7.05012 32.9674ZM17.5439 30.685C16.6294 30.6759 15.8774 31.7371 15.8642 33.0552C15.8511 34.3734 16.5819 35.4494 17.4964 35.4585C18.4109 35.4676 19.1629 34.4064 19.1761 33.0882C19.1892 31.7701 18.4584 30.6941 17.5439 30.685ZM24.5968 30.7552C23.6823 30.7461 22.9303 31.8073 22.9172 33.1255C22.904 34.4436 23.6348 35.5196 24.5493 35.5287C25.4638 35.5378 26.2159 34.4766 26.229 33.1585C26.2421 31.8403 25.5114 30.7643 24.5968 30.7552Z" fill="#2B3B47"/>
</svg>
